<svg width="20" height="20" viewBox="0 0 20 20" fill="none" xmlns="http://www.w3.org/2000/svg">
<path d="M10.8485 0.751473C10.3799 0.282844 9.62009 0.282844 9.15147 0.751473L0.751466 9.15147C0.282837 9.6201 0.282837 10.3799 0.751466 10.8485C1.22009 11.3172 1.97989 11.3172 2.44852 10.8485L2.79999 10.4971V18.4C2.79999 19.0627 3.33725 19.6 3.99999 19.6H6.39999C7.06274 19.6 7.59999 19.0627 7.59999 18.4V16C7.59999 15.3373 8.13725 14.8 8.79999 14.8H11.2C11.8627 14.8 12.4 15.3373 12.4 16V18.4C12.4 19.0627 12.9373 19.6 13.6 19.6H16C16.6627 19.6 17.2 19.0627 17.2 18.4V10.4971L17.5515 10.8485C18.0201 11.3172 18.7799 11.3172 19.2485 10.8485C19.7171 10.3799 19.7171 9.6201 19.2485 9.15147L10.8485 0.751473Z" fill="#10B981"/>
</svg>
