<svg width="20" height="20" viewBox="0 0 20 20" fill="none" xmlns="http://www.w3.org/2000/svg">
<path fill-rule="evenodd" clip-rule="evenodd" d="M9.99999 19.6C15.3019 19.6 19.6 15.3019 19.6 10C19.6 4.69807 15.3019 0.4 9.99999 0.4C4.69806 0.4 0.399994 4.69807 0.399994 10C0.399994 15.3019 4.69806 19.6 9.99999 19.6ZM11.2 6.4C11.2 5.73726 10.6627 5.2 9.99999 5.2C9.33725 5.2 8.79999 5.73726 8.79999 6.4V8.8H6.39999C5.73725 8.8 5.19999 9.33726 5.19999 10C5.19999 10.6627 5.73725 11.2 6.39999 11.2H8.79999V13.6C8.79999 14.2627 9.33725 14.8 9.99999 14.8C10.6627 14.8 11.2 14.2627 11.2 13.6V11.2H13.6C14.2627 11.2 14.8 10.6627 14.8 10C14.8 9.33726 14.2627 8.8 13.6 8.8H11.2V6.4Z" fill="#6B7280"/>
</svg>
